<svg width="33" height="31" viewBox="0 0 33 31" fill="none" xmlns="http://www.w3.org/2000/svg">
<path d="M16.4487 14.9995C13.2932 15.5112 10.6328 15.4962 7.56883 14.9953C5.47805 14.6535 3.59811 16.484 4.09463 18.5395L5.86194 25.8562C6.16571 27.1138 7.29316 28 8.58934 28H15.4424C16.7386 28 17.866 27.1138 18.1698 25.8562L19.9337 18.5536C20.431 16.4948 18.5432 14.6598 16.4487 14.9995Z" stroke="#1E222B" stroke-width="1.5"/>
<path d="M8 17.8323L8.00001 13.5C8.00001 11.567 9.56701 10 11.5 10H12.5C14.433 10 16 11.567 16 13.5V18" stroke="#1E222B" stroke-width="1.5" stroke-linecap="round"/>
<circle cx="21" cy="12" r="11" fill="#F9B023" stroke="#FAFBFD" stroke-width="2"/>
<path d="M20.2951 17.189C20.9251 17.189 21.4945 17.0467 22.0031 16.762C22.5118 16.4773 22.9155 16.0853 23.2141 15.586C23.5128 15.082 23.6621 14.5103 23.6621 13.871C23.6621 13.325 23.5548 12.8257 23.3401 12.373C23.1301 11.9203 22.8268 11.5493 22.4301 11.26C22.0381 10.966 21.5691 10.7817 21.0231 10.707L23.5151 8.313V6.92H17.4531V8.313H21.7231L18.6431 11.036L19.3291 12.191C19.6418 12.023 19.9591 11.939 20.2811 11.939C20.8411 11.939 21.2938 12.121 21.6391 12.485C21.9891 12.849 22.1641 13.311 22.1641 13.871C22.1641 14.4263 21.9915 14.886 21.6461 15.25C21.3008 15.6093 20.8505 15.7937 20.2951 15.803C19.8845 15.8077 19.5111 15.6957 19.1751 15.467C18.8391 15.2383 18.6035 14.9047 18.4681 14.466L17.0541 14.858C17.1988 15.334 17.4298 15.747 17.7471 16.097C18.0691 16.447 18.4495 16.7177 18.8881 16.909C19.3268 17.0957 19.7958 17.189 20.2951 17.189Z" fill="white"/>
</svg>
